<?xml version="1.0" standalone="no"?><!DOCTYPE svg PUBLIC "-//W3C//DTD SVG 1.1//EN" "http://www.w3.org/Graphics/SVG/1.1/DTD/svg11.dtd"><svg t="1687079511477" class="icon" viewBox="0 0 1024 1024" version="1.1" xmlns="http://www.w3.org/2000/svg" p-id="6007" xmlns:xlink="http://www.w3.org/1999/xlink" width="200" height="200"><path d="M509.090909 471.272727A224 224 0 1 1 733.090909 247.272727 224.232727 224.232727 0 0 1 509.090909 471.272727z m0-389.818182A165.818182 165.818182 0 1 0 674.909091 247.272727 166.050909 166.050909 0 0 0 509.090909 81.454545z" fill="" p-id="6008"></path><path d="M513.512727 1000.727273H512c-26.647273-1.396364-54.923636-1.978182-82.385455-2.56-119.272727-2.327273-242.618182-4.770909-315.461818-76.567273-34.909091-31.301818-42.705455-84.829091-20.945454-143.592727 43.287273-116.363636 193.163636-242.385455 420.072727-244.363637 227.490909 2.094545 377.367273 128 420.538182 244.363637 21.876364 58.181818 13.963636 112.290909-20.945455 143.592727-72.843636 71.796364-196.189091 74.24-315.461818 76.567273-27.345455 0-55.738182 1.047273-82.385454 2.56z m0-409.018182C300.8 593.454545 178.152727 716.101818 147.665455 798.138182c-13.265455 35.607273-11.636364 65.512727 5.46909 80.174545l1.28 1.163637c56.203636 55.970909 168.029091 58.181818 276.247273 60.276363 27.345455 0 55.621818 1.047273 82.734546 2.443637 27.229091-1.396364 55.389091-1.978182 82.734545-2.443637 108.101818-2.094545 219.927273-4.305455 276.247273-60.276363l1.28-1.163637c16.64-14.661818 18.734545-44.683636 5.469091-80.174545C848.756364 716.101818 726.109091 593.454545 513.163636 591.476364z" fill="" p-id="6009"></path></svg>