<?xml version="1.0" standalone="no"?><!DOCTYPE svg PUBLIC "-//W3C//DTD SVG 1.1//EN" "http://www.w3.org/Graphics/SVG/1.1/DTD/svg11.dtd"><svg t="1687079490013" class="icon" viewBox="0 0 1024 1024" version="1.1" xmlns="http://www.w3.org/2000/svg" p-id="4989" xmlns:xlink="http://www.w3.org/1999/xlink" width="200" height="200"><path d="M512 1024C229.229714 1024 0 794.770286 0 512 0 229.229714 229.229714 0 512 0 794.770286 0 1024 229.229714 1024 512 1024 794.770286 794.770286 1024 512 1024ZM512 80.847238C273.871238 80.847238 80.847238 273.871238 80.847238 512 80.847238 562.883048 90.112 611.498667 106.300952 656.847238L359.594667 459.654095 505.880381 583.92381 729.892571 399.798857 658.285714 341.333333 853.333333 341.333333 853.333333 341.333333 853.333333 512 780.190476 463.238095 510.439619 691.175619 359.594667 566.881524 144.896 737.304381C220.769524 860.647619 356.571429 943.152762 512 943.152762 750.128762 943.152762 943.152762 750.128762 943.152762 512 943.152762 273.871238 750.128762 80.847238 512 80.847238Z" p-id="4990"></path></svg>