<?xml version="1.0" standalone="no"?><!DOCTYPE svg PUBLIC "-//W3C//DTD SVG 1.1//EN" "http://www.w3.org/Graphics/SVG/1.1/DTD/svg11.dtd"><svg t="1687403433074" class="icon" viewBox="0 0 1024 1024" version="1.1" xmlns="http://www.w3.org/2000/svg" p-id="8539" xmlns:xlink="http://www.w3.org/1999/xlink" width="200" height="200"><path d="M754.1 121.6c-0.8-0.4-1.4-0.4-2.2-0.6-0.5-0.3-0.9-0.8-1.5-0.9-224-79.5-413.7 79.2-542.8 247.2-70.6 91.8-84.1 203.1-70 316.9 10.2 82.3 47.8 188 130.3 223.7 83.7 36.3 218.5 12.9 301.6-17.2 99.2-35.9 164.9-132.7 226-213.8 120.3-159 171.1-443.5-41.4-555.3z m76.3 442.6" fill="#EED0A1" p-id="8540"></path><path d="M280.1 878.4c47.3 22 120.5 19.2 185 7.9l37.3-7.6c17.3-4.1 33.5-8.6 47.3-13.2 92.6-30.5 154.8-120.2 211.9-194.7 19.8-25.8 37.9-51.9 53.6-78.9l14.8-27.3c22.9-46.2 37.5-95.5 38.8-151.2 2.5-99.5-26.1-196.5-109.6-252-210.5-55.2-388.7 96.6-511.8 256.7-68.4 88.6-83.3 195.6-71.4 305.4 14.2 65.3 45 127.5 104.1 154.9z" fill="#E3B163" p-id="8541"></path><path d="M461.4 163c35.8 4.4 56.6 29 62.6 73.7-31.9-33.4-63.9-48.2-95.8-44.5l33.2-29.2zM276.2 391c7.6 38.8 31.8 61.6 72.5 68.3 61.1 10.1 94.6 1.6 94.6 5.8 0 4.2-42.6 34.4-94.6 34.4-34.7 0-62-8.1-81.9-24.3l9.4-84.2z m0 0M676.5 769.8c-35.8-4.4-56.6-29-62.6-73.7 31.9 33.4 63.9 48.2 95.8 44.5l-33.2 29.2z m185.3-228c-7.6-38.8-31.8-61.6-72.5-68.3-61.1-10.1-94.6-1.6-94.6-5.8 0-4.2 42.6-34.4 94.6-34.4 34.7 0 62 8.1 81.9 24.3l-9.4 84.2z m0 0" fill="#D0973E" p-id="8542"></path><path d="M798.7 187.7c81.6 135.2 30.1 334.7-63.4 458.3-61.2 81.2-126.8 169-226 204.8-83.1 30-197.9 15.4-281.6-20.8-16.3-7.1-30.8-16.9-43.7-28.6 20.4 34.5 47.8 63.5 83.8 79.1 83.7 36.3 198.5 33.9 281.6 3.8 99.2-35.9 164.9-106.7 226-187.8 106-140.1 158.1-377.8 23.3-508.8z" fill="#D0973E" p-id="8543"></path><path d="M402.5 365.1L370 340.7c-6.6-5-17.2-1-21.1 5.5-4.6 7.9-1.1 16 5.5 21.1l32.4 24.4c6.6 5 17.2 1 21.1-5.5 4.6-7.8 1.2-16-5.4-21.1zM239.8 728.5c-11.1-16.3-37.8-0.9-26.6 15.5 10.3 15.1 21.6 29.5 34.1 42.9 13.5 14.5 35.2-7.2 21.8-21.7-10.8-11.5-20.6-23.6-29.3-36.7zM542 717.3c-14-14.1-35.7 7.6-21.7 21.7 7.3 7.2 13.4 15 18.8 23.8 10.4 16.8 37.1 1.3 26.6-15.5-6.8-10.7-14.8-20.8-23.7-30zM364.9 567.4c-6.4-5.3-15.5-6.2-21.8 0-5.5 5.5-6.4 16.4 0 21.8 8.4 7 16.7 14.1 25.1 21.1 6.4 5.3 15.5 6.2 21.8 0 5.5-5.5 6.4-16.4 0-21.7-8.4-7.2-16.7-14.2-25.1-21.2z m213.2-56c-4.8-6.7-13.5-9.9-21.1-5.5-6.7 3.9-10.3 14.2-5.5 21.1 8.1 11.6 17.3 22.4 27.5 32.3 14.2 13.7 36.1-8 21.7-21.7-8.2-8.1-16-16.7-22.6-26.2z m-4.7-103.7c6.6 5.1 17.3 1 21.1-5.5 4.7-8 1-15.9-5.5-21.1-10.9-8.4-21.8-16.8-32.7-25.3-6.6-5.1-17.3-1-21.1 5.5-4.7 8-1 15.9 5.5 21.1 11 8.4 21.9 16.9 32.7 25.3z m151.4-104.1c-5.1-6.6-16.4-5.3-21.7 0-6.5 6.5-5.1 15.1 0 21.8 10.3 13.2 20.6 26.3 30.9 39.6 5.1 6.6 16.4 5.3 21.8 0 6.5-6.5 5.1-15.1 0-21.8-10.4-13.3-20.7-26.4-31-39.6z m0 0" fill="#B0701D" p-id="8544"></path><path d="M754 121.1c-0.8-0.4-1.4-0.4-2.2-0.6-0.5-0.3-0.9-0.8-1.5-0.9-224-79.5-413.7 79.2-542.8 247.2-70.6 91.8-84.1 203.1-70 316.9 10.2 82.3 47.8 188 130.3 223.7 83.7 36.3 218.5 12.9 301.6-17.2 99.2-35.9 164.9-132.7 226-213.8C915.7 517.5 966.5 232.9 754 121.1zM187.3 473.2c15-42.6 38.9-82 74.7-124.2 46.9-55.3 100.1-108.1 159.1-148.1l26.1-16.5c49.6-29.5 102.9-49.2 159.9-53.7l42.5-0.4c29.3 1.7 59.3 7.6 90.2 18.3 98.8 52.8 132 156.8 129.4 263.8-1.3 55.7-15.9 105.1-38.8 151.2l-14.8 27.3c-15.6 27-33.7 53-53.6 78.9-57.1 74.5-119.3 164.2-211.9 194.7-13.9 4.6-30 9.2-47.3 13.2l-37.3 7.6c-64.5 11.3-137.6 14.1-185-7.9-93.1-43.1-115.9-172.6-114.7-264.6 0.5-39.9 4.1-74.9 12-107.4l9.5-32.2z" fill="#333333" p-id="8545"></path></svg>